# xmcd
#
# Track frame offsets: 
#        150
#        9498
#        21301
#        30187
#        38691
#        48791
#        54714
#        64869
#        75879
#        85617
#        94991
#        106159
#        117885
#        128995
#        137976
#        146183
#        151735
#        160924
#
# Disc length: 2283 seconds
#
# Revision: 0
# Processed by: cddbd v1.5.2PL0 Copyright (c) Steve Scherf et al.
# Submitted via: ExactAudioCopy v1.1
#
DISCID=dc08e912
DTITLE=Johnny Cash - The Sun Singles Collection [CD 2)
DYEAR=2014
DGENRE=Country
TTITLE0=Luther Played The Boogie
TTITLE1=Thanks A Lot
TTITLE2=Katy Too
TTITLE3=I Forgot To Remember To Forget
TTITLE4=Goodbye Little Darlin'
TTITLE5=You Tell Me
TTITLE6=Straight A's In Love
TTITLE7=I Love You Because
TTITLE8=The Story Of A Broken Heart
TTITLE9=Down The Street To 301
TTITLE10=Mean-Eyed Cat
TTITLE11=Port Of Lonely Hearts
TTITLE12=Oh Lonesome Me
TTITLE13=Life Goes On
TTITLE14=Sugartime
TTITLE15=My Treasure
TTITLE16=Blue Train
TTITLE17=Born To Lose
EXTD=
EXTT0=
EXTT1=
EXTT2=
EXTT3=
EXTT4=
EXTT5=
EXTT6=
EXTT7=
EXTT8=
EXTT9=
EXTT10=
EXTT11=
EXTT12=
EXTT13=
EXTT14=
EXTT15=
EXTT16=
EXTT17=
PLAYORDER=
